<?xml version="1.0" encoding="utf-8"?>
<!-- Generator: Adobe Illustrator 19.2.1, SVG Export Plug-In . SVG Version: 6.00 Build 0)  -->
<svg version="1.1" id="layer" xmlns="http://www.w3.org/2000/svg" xmlns:xlink="http://www.w3.org/1999/xlink" x="0px" y="0px"
	 viewBox="0 0 652 652" style="enable-background:new 0 0 652 652;" xml:space="preserve">
<style type="text/css">
	.st0{fill:#3E1151;}
	.st1{fill:#00935F;}
	.st2{fill:#56AB2D;}
</style>
<g>
	<g>
		<path class="st0" d="M191.5,298.1c-5.6-0.1-6.6-0.1-12.3-0.1c-0.1,6.7-0.1,7.8-0.1,13.7c0,16.8,0.3,23.4,0.5,27.5l-0.4,0.5
			c-3.8,0-4,0-7.7,0.2l-0.3-0.5c0.3-9.4,0.4-18.8,0.4-28.1c0-6.8-0.1-10.4-0.2-13.3c-5.8,0.1-6.5,0.1-12.5,0.3l-0.4-0.5
			c0.1-2.4,0.1-2.6,0.3-5l0.3-0.5c4.8,0,12.5,0,17.3-0.1c5.2,0,10.3-0.1,15.5-0.1l0.3,0.5c-0.2,2.3-0.3,3.1-0.3,5L191.5,298.1z"/>
		<path class="st0" d="M222.1,328.2c-0.7,3.3-2.1,5.9-4.3,8.1c-2.9,2.9-6.9,4.1-11.6,4.1c-6,0-9.9-2.3-12-4.5
			c-4.6-4.6-4.6-11.4-4.6-13.7c0-2.5,0.1-9.1,4.6-13.6c1.9-1.9,5.8-4.7,12.5-4.7c4.6,0,9,1.5,12,4.8c3.1,3.6,4,8.2,4.1,12.9
			C222.7,324,222.5,326.2,222.1,328.2z M213.4,312.9c-1.3-2.1-3.4-3.8-7.2-3.8c-1.3,0-5,0.1-7.4,3.9c-1.8,2.7-2,6.6-2,9.5
			c0,2.7,0.1,9.4,5.4,12.1c1.2,0.6,2.6,0.9,4,0.9c2.5,0,5.7-0.8,7.6-4.5c1.6-3,1.6-7.5,1.6-8.9C215.4,320.3,215.1,315.8,213.4,312.9
			z"/>
		<path class="st0" d="M259.9,305c-0.1,5.1-0.2,9.8-0.2,15.3c0,8.2,0.2,13.2,0.3,16.1c0,0.9,0.1,1.9,0.1,2.8l-0.3,0.4
			c-3.2,0.1-3.8,0.1-6.8,0.3l-0.4-0.4l0.1-2.8c-1.5,1.1-5,3.8-10.5,3.8c-2.6,0-5.5-0.6-7.6-2.3c-4.3-3.5-4.3-9.2-4.4-14.4v-4.1
			c-0.1-9.6-0.1-10.7-0.3-14.3l0.3-0.5c3.1-0.1,3.8-0.1,6.9-0.3l0.4,0.5l-0.3,14.7c0,1.8-0.1,3.1,0,6.3c0.1,2.8,0.2,8.8,7,8.8
			c3.9,0,6.8-2.2,8.4-3.5c0.1-3.6,0.1-6.7,0.1-10.6c0-9.3-0.1-11.2-0.5-15.5l0.4-0.5c3.1-0.1,3.8-0.1,6.9-0.3L259.9,305z"/>
		<path class="st0" d="M285,311.8c-0.7-0.3-1.5-0.6-2.7-0.6c-1.3,0-2.2,0.5-2.8,0.9c-2.7,1.9-2.7,4.9-2.7,11.9
			c0,7.6,0.2,11.5,0.5,15.3l-0.3,0.5c-3.2,0-3.9,0.1-7.1,0.2l-0.3-0.4c0.1-5.1,0.1-9.7,0.1-15.9c0-10.7-0.2-13.5-0.6-17.3l0.4-0.5
			c2.5-0.5,4.1-0.8,7-1.4l0.4,0.4l-0.3,5.7c0.8-2.2,2.5-6.4,8.2-6.4c0.9,0,1.3,0.1,1.9,0.2l0.3,0.4c-0.7,3.2-0.8,3.9-1.3,6.8
			L285,311.8z"/>
		<path class="st0" d="M299,339.6c-3.5,0.1-4,0.1-7.3,0.3l-0.3-0.5c0.2-3.5,0.4-6.6,0.4-14.1c0-12.8-0.2-15.2-0.7-19.2l0.3-0.5
			c2.9-0.5,3.9-0.6,7.2-1.4l0.7,0.4c-0.2,3.5-0.4,7.1-0.4,15.7c0,12.5,0.1,14.1,0.4,18.7L299,339.6z M299.1,295.1
			c-3.4,0.1-4.1,0.2-7.4,0.5l-0.4-0.4c0.1-0.9,0.1-1.8,0.1-2.7c0-1.2-0.1-2.3-0.1-3.6l0.5-0.4c3.5-0.3,4.1-0.3,7.4-0.7l0.4,0.4
			c-0.1,2.7-0.1,3.4,0,6.4L299.1,295.1z"/>
		<path class="st0" d="M322.5,319.3c2.7,0.9,8.8,2.9,8.8,10c0,2.7-1,5.7-3.7,7.9c-3.6,3-8.3,3.2-10.7,3.2c-3.6,0-6.6-0.7-9.2-1.7
			c-0.3-0.1-0.7-0.3-1-0.4l-0.3-0.6c0.3-2.6,0.3-2.9,0.4-5.6l0.7-0.2c1.2,0.9,4.2,3.2,9.3,3.2c5.3,0,7.2-2.9,7.2-5
			c0-3.1-2.9-4.1-7-5.4l-2.2-0.7c-2.7-0.9-8.8-2.8-8.8-9.7c0-6.9,6-10.3,13.5-10.3c5,0,8.4,1.4,9.6,1.9l0.3,0.5
			c-0.3,2.5-0.3,2.8-0.5,5.3l-0.6,0.3c-1.7-1.1-4.3-2.7-8.6-2.7c-0.9,0-1.9,0.1-2.9,0.3c-2,0.5-3.7,2-3.7,4c0,2.9,2.7,3.8,6.9,5
			L322.5,319.3z"/>
		<path class="st0" d="M337.6,305.7c3.4-0.5,5.2-0.9,7.2-1.4l0.4,0.5l-0.2,3.4c2.3-1.7,6.1-4.3,11.3-4.3c5.7,0,7.7,3.3,8.6,4.8
			c1.6-1.2,6.6-4.8,12.9-4.8c2.5,0,5.3,0.8,7.2,2.7c3.1,3,3.2,5.6,3.2,11.3v5.7c0,7.6,0.1,9.5,0.4,15.5l-0.4,0.5
			c-3.2,0-3.8,0.1-6.8,0.2l-0.4-0.4c0.1-5.6,0.2-11.7,0.2-17.1c0-4.2,0-5.7-0.4-7.2c-0.6-2.9-2.1-5.2-5.9-5.2
			c-1.7,0-4.9,0.5-8.6,3.4c0.2,1.4,0.3,6.2,0.3,8.2v3.8c0,6.8,0.1,9.2,0.4,13.9l-0.3,0.5c-3.5,0-3.9,0.1-7,0.2l-0.4-0.4
			c0.3-6,0.3-13.7,0.3-18c0-3.4,0-5-0.5-6.8c-0.5-2.1-1.7-4.8-5.6-4.8c-2.4,0-5.3,0.9-8.4,3.4v11.5c0,7.4,0.2,10.7,0.5,14.5
			l-0.4,0.5c-3.5,0-3.7,0-7,0.2l-0.4-0.4c0.1-2.7,0.3-6.5,0.3-13.4c0-12.6-0.3-16.8-0.7-19.9L337.6,305.7z"/>
		<path class="st0" d="M419.9,292.6c-0.2,9.2-0.3,18.5-0.3,27.7c0,9.7,0.1,12.8,0.5,19l-0.4,0.4c-5.6,0-6.9,0-11.9,0.2l-0.3-0.4
			c0.3-7,0.4-11.1,0.4-19c0-17.1-0.2-20.5-0.6-27.7l0.3-0.4c4.8,0.1,6.4,0.1,12.1-0.2L419.9,292.6z"/>
		<path class="st0" d="M446.9,315.1c-0.9-0.6-1.6-0.9-2.7-0.9c-4.5,0-4.5,4.4-4.5,7.4c0,4.6,0.4,12.2,0.7,17.6l-0.3,0.5
			c-5.4-0.1-6.4,0-11.4,0.2l-0.4-0.4c0.1-5.6,0.2-11.1,0.2-16.5c0-9.3-0.2-12.3-0.6-17.4l0.4-0.4c4.9-0.7,6.2-0.9,11.1-2l0.5,0.5
			l-0.2,6.2c2.2-5,5.2-6.5,8-6.5c0.5,0,0.9,0.1,1.4,0.1l0.4,0.5l-1.9,10.9L446.9,315.1z"/>
		<path class="st0" d="M483.5,330l-0.5,7.6l-0.4,0.5c-3.6,1.4-6,2.4-11.5,2.4c-4.8,0-13.9-0.8-17.8-9.8c-1.1-2.3-1.6-5.6-1.6-8.8
			c0-11.6,7-18.5,17.5-18.5c1.5,0,3.1,0.1,4.7,0.6c2.3,0.5,7.4,2.1,9.8,10c0.9,3.4,1,6.7,1.1,10l-0.4,0.5l-21.6,0.4
			c0.3,1.3,0.5,2.7,1.5,4.1c1.6,2.4,4.4,3.7,8.4,3.7c4.9,0,7.9-1.5,10.4-2.9L483.5,330z M473.9,317.5c0-1.5-0.1-3.1-1-4.6
			c-0.7-1.2-2.1-2.3-4.3-2.3c-0.9,0-1.9,0.2-2.7,0.7c-2.6,1.6-3,4.4-3.2,6.5L473.9,317.5z"/>
		<path class="st0" d="M502.3,339.7c-4.9-0.1-6.7,0-11.2,0.2l-0.4-0.5c0.3-6.6,0.4-10.6,0.4-17.9c0-4,0-7.9-0.1-11.9
			c-0.1-10.9-0.2-13.1-0.9-21.2l0.3-0.4l11.4-1.8l0.5,0.5c-0.3,7.2-0.3,10.3-0.3,16.6c0,21.2,0.3,28.2,0.7,35.9L502.3,339.7z"/>
		<path class="st0" d="M540.2,324.7c0,6.3,0,8,0.5,14.5l-0.3,0.5c-4.4-0.1-5.8,0-10.7,0.2l-0.4-0.5v-2.5c-1.4,1.2-4.3,3.6-9.3,3.6
			c-6.6,0-11.7-4.6-11.7-11.8c0-3,1.3-6.8,5-9.2c4-2.5,7.8-3.2,15.8-4.3c0-1-0.2-2.2-0.9-2.9c-0.9-0.9-1.9-1.3-4.4-1.3
			c-4.5,0-8.8,1.7-11.2,2.7l-0.5-0.3l0.3-7.3l0.4-0.5c3.8-1.1,7.4-2.2,13.1-2.2c8.6,0,11.2,2.7,12.6,4.8c1.7,2.8,1.7,5.4,1.7,11.5
			L540.2,324.7z M529.3,322.3c-4.5,0.6-9.9,1.3-9.9,5.8c0,2.8,2,4.1,4.4,4.1c2.2,0,4-0.9,5.4-1.7V322.3z"/>
		<path class="st0" d="M580.5,339.6c-5.4,0-6.5,0.1-10.9,0.2l-0.4-0.4c0-2.3,0.1-4.6,0.1-6.9c0-2.5-0.1-11.7-0.2-13.9
			c-0.2-2.4-0.5-6.4-4.2-6.4c-2.2,0-3.8,1.1-5.2,2.1c0.1,12,0.1,14.6,0.5,24.9l-0.4,0.4c-5.4,0-6.4,0-11.2,0.2l-0.4-0.4
			c0.1-4.3,0.1-8.6,0.1-12.9c0-10.9-0.4-15.1-0.9-21l0.4-0.5c5-0.7,6.2-0.9,11.3-1.9l0.7,0.5l-0.1,3.7c3.1-1.8,6.6-4,10.7-4
			c2.4,0,6.2,0.5,8.3,4c1.7,2.7,1.7,5.8,1.8,12.3v5.2c0.1,6.6,0.1,8.4,0.5,14.3L580.5,339.6z"/>
		<path class="st0" d="M621.1,339.7c-5,0-6.3,0-10.9,0.2l-0.3-0.4l0.1-2.6c-1.6,1.4-4.1,3.6-8.9,3.6c-2.2,0-5.8-0.5-8.8-2.9
			c-4-3.3-5.4-8.5-5.4-13.7c0-6.9,2-12.5,6.6-16.1c5.1-4,11.4-3.9,16.4-3.8c0.1-7.6,0-9.3-0.4-15.6l0.3-0.4l11-1.7l0.5,0.4
			c-0.3,8.8-0.5,16.1-0.5,33.8c0,8.8,0.2,12.8,0.5,18.8L621.1,339.7z M607.8,311.8c-7.5,0-9,5.8-9,10.9c0,1.3,0,9.6,6.5,9.6
			c1.9,0,3.2-0.8,4.6-1.6c0.2-8.1,0.3-9.8,0.2-18.7C609.1,311.9,608.5,311.8,607.8,311.8z"/>
	</g>
	<path class="st1" d="M84.4,311.9c-0.5-1.9-0.1-4.1-1.1-5.8c1.1-0.8,2-1.9,3.5-1.7c1.2-1.6,3.4-1.3,4.5-2.9l0.7,0.7
		c1.9-0.3,3-1,4.6-2.2c2.7-0.7,6.3-1.8,6.9-5c4.3-4.3,5.1-9.8,6.1-15.6c-0.7-1.8-0.4-4-2-5.4c0.6-1-0.6-2-1.1-2.6
		c-2-2.8-4.4-5.5-7.4-8c-0.6-1.6-2.9-1.9-4.1-3.5c-3.5-1.9-7.4-4.3-11.3-3.9l-0.2-0.6c-1.7,0.3-3.2,0.3-5,0.9
		c-2.1-0.4-4.1,0.8-6.3,0.7c-4.2,1.5-8.7,2.8-12.2,5.6c-3.4,1.2-5.7,4.3-7.6,7c-1.4,0.8-1.7,2.8-2.2,4.4c0.3,0,0.7-0.2,0.9,0.2
		c0.1,0.2-0.1,0.3-0.2,0.4c-0.2,0-0.5,0.1-0.7-0.2v2.6c0,1.6,1,3.2,1.6,4.3c1.6,5.2,5.7,9.4,8.7,13.9c-3.7,0-8.7,0-12.6,0
		c-6,1.3-12.1,1.6-17.6,4.8c-3.2,2.1-6.4,5.8-7.6,10c-0.4,3-1,6.3-1.1,9.5c-0.1,3.3,0.1,6.5,1.1,9.4c0,1.1,0.8,2.4,0.2,3.3h0.5
		c3.2,9.9,9.5,21.9,20.6,25c6.7,1.5,12.5-2.6,16.1-7.4c1.5-1,2.1-3,3.5-3.9c-0.6-2.2,1.8-2.7,2.2-4.6c4.1-3,4-8.9,8.5-11.9
		c0.6,0.2,1.4-0.4,1.8,0.5c-0.3,7.4-2.6,14-4.8,20.6c-2.3,7.7-7,15.5-14.4,20.8c0.1,1.2-1.9,1.4-1.5,2.2l2.6-0.9
		c2.3-0.3,4-3.3,5.9-4.8h0.4c9.1-9.6,16.3-20.1,19.8-32c1.1-4.8,1.6-11.4,0.5-16.3c0.2-1.1-1-2.2-0.9-3.1L84.4,311.9z M65.4,333.7
		c-6.1,3.8-13.6,9.2-21.1,4.6c-3.3-2.4-6.2-5.7-7.2-9.4c2.6-2.2,6-2.8,9.4-2.6c0.6,0,1.3-1,1.7,0c1.6-0.9,3-0.1,4.8-0.7l0.4,0.5
		c3.7-0.2,8.3,0.2,12,1.3c1.5,0,3.5,0.1,4.8,1.3C69.8,330.7,67.1,332.3,65.4,333.7z M74.6,320.9c-12.8-1.6-26.5-0.5-38,4.1
		c-0.2-2.2-0.7-4.2,0.4-6.1c6.9-8.8,20.6-7,29.6-4.1c1.1,0.4,2.2,1,3.5,1.1C70.9,318.4,74.9,317.6,74.6,320.9z M78.9,297.8
		c-1.5,0-2.7-1-3.5-2c-3.5-3.8-7.7-7.8-10.2-12c-0.4-2.7-2.6-5.3-1.5-8.1c1.9-3.8,5.9-5.5,9.6-6.5c0.5-1.4,1.4,0.2,2.2-0.6
		c3.6-0.8,7.3-3,11.3-1.5c-2.7,4.2-4.6,9-5.9,13.5c-0.8,0.1-0.5,0.9-0.9,1.3C78.1,287.4,78.3,291.8,78.9,297.8z M81.8,301.9
		c-1.4-3-1.9-6-1.3-9.2c0.6-4.4,1.3-7.8,2.9-12.1c1.5-2.2,1.9-4.9,3.3-7.2l-0.2-0.2c1.5-1.3,1.6-3.9,2.4-5.2c2.9,0.5,4.8,3,6.8,5.4
		c1.2,3.2,0.3,6.2-0.9,9.1c-3.6,7.5-7.1,15.2-11.5,22.1C83,303.6,81.4,302.8,81.8,301.9z"/>
	<path class="st2" d="M84.1,315.4c0.2,1.4,1.7,1.5,2.8,1.7c2.9-0.9,6.2-1.4,7.6-4.6c5.7-3.6,11.1-7.8,17.4-10
		c5.4-1.5,13.4-4.7,18.3,0.2c3.1,10.9-3.4,20.6-8.3,29.6c-3.3,3.5-5.2,10-11.1,8.9c-2.2-1.1-4.8-3-5-5.7c-0.2-1.1-1.6-1.2-0.5-2.4
		c-1.5-1.3-0.2-3.8-0.6-5.2c0.6-2.7,2-5.1,4.6-6.5c2.8-1,6.1-0.3,8.2,1.7c1.1,3.5,0.4,7.7-2.2,10.5h0.7c2.2-2.2,4.8-4.5,6.3-7.4
		c-0.2-0.8,0.3-1.3,0.6-2c0.2-0.6,0.7-1.5,0-2c-0.1-0.3,0.3-0.4,0.5-0.6c-0.6-0.3-0.7-1.1-0.5-1.5c-2-3.4-4.8-5.2-8.2-6.5
		c-9.1-3.2-17.6,2.1-24.1,8.1c-0.3-0.1-0.2-0.5-0.2-0.7c-1.4,1.2-0.6,3.5-1.9,4.4c0.3,1.8-0.2,5-0.6,6.3c1.2,0.8,0.1,2.4,0.9,3.3
		c0.7,1.1-0.5,2.7,0.6,3.4c1.1,4.4,5.2,7.2,8.5,10.5c1.6,1.1,3.8,1.1,5,2.6c0.9,1.8,2.8-0.1,3.9,1.8c2.3,0.3,5.2,1.2,7.8,0.9
		c1.3,0,3-0.3,4.1-1.1c2.8-0.5,5.1-2.2,7.2-4.3c1-0.3,1.2-1.7,2.2-1.9c0.9-2.2,2.8-3.8,3.9-5.9c-0.6-1.6,1.7-1.9,1.7-3.5
		c-0.2,0.1-0.3-0.1-0.4-0.2c2.4-3.7,4.7-8.6,7.2-12.9c-0.3-1,0.7-2,1.3-2.8c2.2-5.9,2.1-11.5,1.1-17.6c-1.8-4.5-4.8-7.9-8.9-10.4
		c-7.6-2.8-15.6-2.6-22.8,1.5c-0.5,0-1-0.1-1.3,0.4l-0.2-0.2c-8.9,4.4-18.1,9.7-25,17.4L84.1,315.4z"/>
	<g>
		<path class="st0" d="M185.8,379.9l-0.2,0.2l-2.5,0.1l-0.2-0.2l1-4.6l1-4.7l1.4-6.5l-5.7,10.7l-2.7,5.1l-0.2,0.1l-2.5,0.1l-0.1-0.2
			l-0.3-3.6l-0.8-12.1l-1,4.1l-1.7,6.2l-1.4,5.5l-0.2,0.1l-2.3,0l-0.1-0.2l1.5-5l1.8-6.3l1.7-6.2l0.2-0.1l3.7,0l0.1,0.1l0.3,4.5
			l0.4,4.9c0.2,2.7,0.2,3.2,0.3,5.3l5.2-10l2.5-4.7l0.2-0.1l3.8-0.1l0.1,0.2l-1.2,6.2l-1,5.2L185.8,379.9z"/>
		<path class="st0" d="M201.9,372.1c-0.9,3.9-1.1,4.8-1.6,7.8l-0.2,0.2l-2.4,0.1l-0.1-0.2l0.2-1c-0.4,0.4-1.5,1.3-3.7,1.3
			c-2.6,0-4.6-1.8-4.6-5c0-2,0.9-4.2,2-5.4c2.3-2.7,5.6-2.9,7.9-2.9l3.5,0l0.1,0.2L201.9,372.1z M200,368.9c-0.4,0-0.7,0-1.1,0
			c-0.8,0-2.5,0.1-3.9,1.1c-2.6,1.8-2.7,5.1-2.7,5.2c0,1.2,0.7,3.1,2.9,3.1c0.7,0,1.5-0.2,2.2-0.6c0.3-0.2,0.6-0.4,0.8-0.6
			L200,368.9z"/>
		<path class="st0" d="M206.6,379.9l-0.2,0.2l-2.6,0.1l-0.1-0.2l0.9-3.7l0.5-2.4c0.8-3.2,0.9-3.9,1.3-6.5l0.2-0.2
			c1.2-0.1,1.5-0.2,2.7-0.4l0.1,0.2l-0.5,2.2c0.2-0.4,0.4-0.7,0.6-1c0.8-1,1.8-1.5,2.6-1.5c0.4,0,0.7,0.1,1.2,0.3l0.1,0.2l-1,2.5
			l-0.2,0.1c-0.4-0.2-0.6-0.4-1.1-0.4c-0.7,0-1.3,0.4-1.7,0.9c-0.8,0.9-1.2,2.3-1.8,4.8l-0.5,2.5L206.6,379.9z"/>
		<path class="st0" d="M219.7,372.4l3.9,7.4l-0.2,0.2l-2.8,0.1l-0.2-0.2c-0.6-1.6-0.8-1.9-1.7-3.8l-1.8-3.6c-0.7,3.2-0.9,4-1.5,7.3
			l-0.2,0.2l-2.5,0.1l-0.1-0.2l1.5-6.5l0.8-3.4c0.4-1.6,0.7-3.3,1.1-4.9c0.5-2.3,0.6-3.1,0.8-4.5l0.2-0.2l2.7-0.4l0.1,0.2l-0.8,3.1
			l-2.1,9c0.6-0.5,1-0.9,1.8-1.7c0.9-0.9,3-3.1,3.4-3.5l0.3-0.2h2.9l0.1,0.2c-0.3,0.2-0.4,0.3-1.4,1.2c-0.4,0.3-0.7,0.6-1.1,1
			L219.7,372.4z"/>
		<path class="st0" d="M235.9,379.2l-0.1,0.2c-1.3,0.7-2.6,1-4.1,1c-0.6,0-1.1-0.1-1.7-0.2c-3-0.6-4.2-2.8-4.2-5.4
			c0-3.6,2.1-8.1,7.1-8.1c1.3,0,2.6,0.2,3.6,1.1c1,0.9,1.4,2.1,1.4,3.6c0,0.9-0.1,1.5-0.3,2.3l-0.2,0.1c-0.8,0-4.9,0-5.9,0
			c-1.2,0-1.8,0-3.1,0.1c-0.1,0.4-0.1,0.8-0.1,1.1c0,2.3,1.4,3.3,3.8,3.3c2,0,3.1-0.8,4.2-1.5l0.2,0.1L235.9,379.2z M235.5,372
			c0.1-0.4,0.1-0.8,0.1-1.2c0-1.2-0.7-2.4-2.7-2.4c-1.2,0-2.2,0.5-3,1.5c-0.6,0.8-0.9,1.5-1.1,2.1H235.5z"/>
		<path class="st0" d="M245,378c-0.1,0.3-0.2,0.6-0.3,0.9c-0.1,0.3-0.2,0.6-0.2,0.8l-0.2,0.2c-0.3,0.1-0.9,0.2-1.8,0.2
			c-0.5,0-1.1,0-1.6-0.3c-1.4-0.5-1.4-1.8-1.4-2.2c0-1,0-1.1,1.1-5.5l0.8-3.4c-0.8,0-1,0-1.8,0l-0.1-0.2c0.3-0.8,0.3-0.9,0.4-1.6
			l0.2-0.2c0.8,0.1,1,0.1,1.7,0.1c0.4-1.5,0.5-1.9,0.7-3.2l0.2-0.2c1.2-0.3,1.5-0.3,2.6-0.6l0.2,0.1c-0.2,0.6-0.3,0.9-0.5,1.9
			l-0.5,1.9c1.1,0,1.7,0,2.8-0.1l0.1,0.2c-0.2,0.7-0.3,0.9-0.5,1.7l-0.2,0.1c-1,0-1.3,0-2.6,0l-1.4,5.7c-0.1,0.4-0.1,0.7-0.2,1.1
			c-0.1,0.4-0.2,1.1-0.2,1.4c0,1,0.8,1.1,1.2,1.1c0.6,0,1.2-0.2,1.5-0.3L245,378z"/>
		<path class="st0" d="M249.1,379.9l-0.2,0.1l-2.7,0.1l-0.1-0.2c0.7-2.8,0.9-3.6,1.6-6.7l0.3-1.5c0.5-2,0.5-2.5,0.8-4.3l0.2-0.2
			l2.7-0.4l0.1,0.2c-0.6,2.4-0.8,3.1-1.5,6.5l-0.5,2.6L249.1,379.9z M252.7,363.3l-0.2,0.2l-2.6,0.4l-0.1-0.2l0.5-2.3l0.2-0.2
			l2.6-0.3l0.2,0.2L252.7,363.3z"/>
		<path class="st0" d="M263.7,379.9l-0.2,0.2l-2.6,0.1l-0.1-0.2l1.1-4.5l0.6-2.8c0.1-0.6,0.3-1.2,0.3-1.8c0-1.5-0.9-2-2.1-2
			c-1.6,0-2.6,0.8-3.3,1.3c-0.9,4.2-1.2,5.5-2,9.8l-0.2,0.2l-2.6,0.1l-0.1-0.2l1-4.3l0.4-1.9c0.7-3,0.8-3.6,1.2-6.4l0.2-0.2
			c1.2-0.1,1.5-0.2,2.7-0.4l0.1,0.2l-0.4,1.3c1-0.6,2.2-1.5,4.3-1.5c0.8,0,3.5,0.2,3.5,3.3c0,1.3-0.5,3.5-0.8,4.9l-0.4,1.7
			L263.7,379.9z"/>
		<path class="st0" d="M281.2,367.1c-0.8,3.2-1,4.2-1.9,8.2l-0.7,3.4c-0.6,2.7-1,4.5-2.1,5.8c-1.2,1.4-3.1,1.9-5,1.9
			c-1.3,0-2.7-0.3-3.8-0.8c-0.6-0.3-1-0.7-1.5-1.1l0-0.2l1-1.6h0.2c0.5,0.6,1.6,1.8,3.9,1.8c3.1,0,3.8-2.6,4.1-4.1l0.3-1.3
			c-1,0.6-1.9,1.1-3.7,1.1c-2.5,0-4.5-1.6-4.5-4.8c0-1.8,0.5-3.3,1.2-4.4c2.3-3.9,5.8-4,8.8-4.1l3.5,0L281.2,367.1z M277.5,368.9
			c-1.8,0-4,0-5.6,2c-0.8,0.9-1.5,2.6-1.5,4.2c0,3,2.2,3.2,2.8,3.2c0.4,0,0.8,0,1.1-0.1c1-0.3,1.4-0.6,1.9-1.1l1.9-8.2L277.5,368.9z
			"/>
		<path class="st0" d="M295.3,378c-0.1,0.3-0.2,0.6-0.3,0.9c-0.1,0.3-0.2,0.6-0.2,0.8l-0.2,0.2c-0.3,0.1-0.9,0.2-1.8,0.2
			c-0.5,0-1.1,0-1.6-0.3c-1.4-0.5-1.4-1.8-1.4-2.2c0-1,0-1.1,1.1-5.5l0.8-3.4c-0.8,0-1,0-1.8,0l-0.1-0.2c0.2-0.8,0.3-0.9,0.5-1.6
			l0.2-0.2c0.8,0.1,1,0.1,1.7,0.1c0.4-1.5,0.4-1.9,0.7-3.2l0.2-0.2c1.2-0.3,1.5-0.3,2.6-0.6l0.2,0.1c-0.2,0.6-0.3,0.9-0.5,1.9
			l-0.5,1.9c1.1,0,1.7,0,2.7-0.1l0.1,0.2c-0.3,0.7-0.3,0.9-0.5,1.7l-0.2,0.1c-1.1,0-1.3,0-2.6,0l-1.4,5.7c-0.1,0.4-0.1,0.7-0.2,1.1
			c-0.1,0.4-0.2,1.1-0.2,1.4c0,1,0.8,1.1,1.2,1.1c0.6,0,1.2-0.2,1.5-0.3L295.3,378z"/>
		<path class="st0" d="M307.7,379.9l-0.2,0.2l-2.6,0.1l-0.1-0.2l0.6-2.4l0.6-2.5c0.2-1.1,0.5-2.2,0.7-3.3c0.1-0.3,0.1-0.7,0.1-1
			c0-1.2-0.8-1.9-2-1.9c-0.3,0-0.6,0.1-0.9,0.1c-1.2,0.3-1.9,0.8-2.6,1.3l-1,4.5l-1.1,5.2l-0.2,0.2l-2.5,0.1l-0.2-0.2l2.1-9
			c0.7-3,1.3-5.8,1.4-6.5c0.4-1.8,0.5-2.5,0.6-3.7l0.2-0.2l2.7-0.4l0.1,0.2c-0.7,2.9-1,3.9-1.9,7.9c1-0.6,2.3-1.5,4.3-1.5
			c1.3,0,3.5,0.5,3.5,3.2c0,0.8-0.2,1.7-0.5,3.1l-0.7,3.1L307.7,379.9z"/>
		<path class="st0" d="M321.8,379.2l-0.1,0.2c-1.3,0.7-2.6,1-4.1,1c-0.5,0-1.1-0.1-1.6-0.2c-3-0.6-4.2-2.8-4.2-5.4
			c0-3.6,2.1-8.1,7.1-8.1c1.3,0,2.6,0.2,3.6,1.1c1,0.9,1.5,2.1,1.5,3.6c0,0.9-0.1,1.5-0.3,2.3l-0.2,0.1c-0.8,0-4.9,0-5.9,0
			c-1.2,0-1.8,0-3.1,0.1c-0.1,0.4-0.1,0.8-0.1,1.1c0,2.3,1.4,3.3,3.8,3.3c2,0,3.1-0.8,4.2-1.5l0.2,0.1L321.8,379.2z M321.4,372
			c0.1-0.4,0.1-0.8,0.1-1.2c0-1.2-0.7-2.4-2.7-2.4c-1.2,0-2.2,0.5-3,1.5c-0.6,0.8-0.9,1.5-1.1,2.1H321.4z"/>
		<path class="st0" d="M335,379.9l-0.2,0.1l-2.7,0.1L332,380c0.7-2.8,0.9-3.6,1.6-6.7l0.3-1.5c0.4-2,0.5-2.5,0.8-4.3l0.2-0.2
			l2.7-0.4l0.1,0.2c-0.6,2.4-0.8,3.1-1.5,6.5l-0.5,2.6L335,379.9z M338.6,363.3l-0.2,0.2l-2.6,0.4l-0.1-0.2l0.5-2.3l0.2-0.2l2.6-0.3
			l0.2,0.2L338.6,363.3z"/>
		<path class="st0" d="M348.3,369.7l-0.2,0.1c-0.6-0.7-1.9-1.3-3.2-1.3c-1.5,0-2.7,0.8-2.7,1.9c0,1.1,1.1,1.6,2,2l1.3,0.6
			c0.7,0.3,2.2,1.3,2.2,3.1c0,2.1-1.6,4.4-5.4,4.4c-2.5,0-3.8-0.8-4.6-1.2l-0.1-0.2l0.6-1.8l0.2-0.1c0.8,0.7,1.8,1.5,3.7,1.5
			c1.9,0,2.9-1,2.9-2.1c0-1-0.8-1.5-2.1-2l-0.6-0.3c-1.2-0.6-2.8-1.4-2.8-3.4c0-1.1,0.6-4.1,5.2-4.1c2.3,0,3.5,0.7,4,1l0.1,0.2
			L348.3,369.7z"/>
		<path class="st0" d="M354.1,371.4c-0.9,4.4-1.1,5.1-1.7,8.5l-0.2,0.2l-2.6,0.1l-0.1-0.2l1.2-5.2l1.3-5.9c0.6-2.7,1.2-5.8,1.5-8.3
			l0.2-0.2l2.8-0.5l0.1,0.2l-1.5,6.6L354.1,371.4z"/>
		<path class="st0" d="M368.5,372.1c-0.9,3.9-1.1,4.8-1.6,7.8l-0.2,0.2l-2.4,0.1l-0.1-0.2l0.2-1c-0.4,0.4-1.5,1.3-3.7,1.3
			c-2.6,0-4.7-1.8-4.7-5c0-2,1-4.2,2-5.4c2.3-2.7,5.6-2.9,7.9-2.9l3.5,0l0.1,0.2L368.5,372.1z M366.6,368.9c-0.4,0-0.8,0-1.1,0
			c-0.8,0-2.5,0.1-3.9,1.1c-2.6,1.8-2.7,5.1-2.7,5.2c0,1.2,0.7,3.1,2.9,3.1c0.7,0,1.5-0.2,2.2-0.6c0.3-0.2,0.5-0.4,0.8-0.6
			L366.6,368.9z"/>
		<path class="st0" d="M381.6,379.9l-0.2,0.2l-2.6,0.1l-0.1-0.2l1.1-4.5l0.6-2.8c0.1-0.6,0.3-1.2,0.3-1.8c0-1.5-0.9-2-2.1-2
			c-1.6,0-2.6,0.8-3.3,1.3c-0.9,4.2-1.2,5.5-2,9.8l-0.2,0.2l-2.6,0.1l-0.1-0.2l1-4.3l0.4-1.9c0.7-3,0.8-3.6,1.2-6.4l0.2-0.2
			c1.2-0.1,1.5-0.2,2.7-0.4l0.1,0.2l-0.4,1.3c1-0.6,2.2-1.5,4.3-1.5c0.8,0,3.5,0.2,3.5,3.3c0,1.3-0.5,3.5-0.8,4.9l-0.4,1.7
			L381.6,379.9z"/>
		<path class="st0" d="M398.2,370.5c-0.5,2-0.9,4.1-1.4,6.2c-0.3,1.5-0.4,2-0.6,3.2l-0.2,0.2l-2.3,0.1l-0.1-0.2l0.2-1
			c-0.6,0.5-1.8,1.3-3.7,1.3c-2.8,0-4.7-2.1-4.7-5.1c0-1.5,0.6-4.4,2.8-6.3c1.7-1.5,4.1-2,6.4-2c0.6,0,1.1,0,1.8,0.1l0.6-2.8
			c0.4-1.6,0.4-2.1,0.6-3.4l0.2-0.2l2.7-0.4l0.1,0.2l-1.2,4.8L398.2,370.5z M396,368.8c-0.4,0-0.9,0-1.3,0c-5.7,0-6.4,4.8-6.4,6.1
			c0,2,1.2,3.3,3.1,3.3c1.4,0,2.2-0.7,2.9-1.2L396,368.8z"/>
		<path class="st0" d="M412.7,380.4c-3.4,0-5.2-1.7-5.2-5.2c0-3.1,1.6-8.5,7.1-8.5c3.3,0,5.3,1.8,5.3,5.1c0,0.9-0.2,1.8-0.4,2.7
			C419,376.6,417.4,380.4,412.7,380.4z M417.2,371.5c0-2.5-1.6-3-2.6-3c-4,0-4.5,6.1-4.5,7.1c0,2,1.2,2.9,2.6,2.9
			c2.7,0,3.7-2.8,4.1-4.8C417.1,372.9,417.2,372.2,417.2,371.5z"/>
		<path class="st0" d="M428.8,369c-0.9-0.1-1.1-0.1-2.2-0.1c-0.2,0.8-1,4.7-1.2,5.6c-0.6,3-0.8,4.4-1,5.4l-0.2,0.2
			c-1.2,0-1.5,0-2.5,0.1l-0.1-0.2c0.3-1.3,0.8-3.5,1.1-4.8l1.4-6.3c-0.3,0-1.6,0-1.9,0l-0.1-0.1c0.2-0.8,0.3-0.8,0.5-1.7l0.2-0.2
			c0.4,0,0.6,0,0.9,0.1c0.2,0,0.5,0,0.9,0l0.4-1.6c0.4-2,0.6-3.3,1.6-4.2c1-0.9,2.4-1,3-1c0.9,0,1.5,0.1,1.8,0.2l0.1,0.2
			c-0.2,0.8-0.3,1-0.5,1.7l-0.2,0.2c-0.3-0.1-0.6-0.2-1-0.2c-0.5,0-1,0.2-1.4,0.5c-0.4,0.5-0.6,1.3-1,2.8l-0.3,1.3
			c1.2,0,1.6,0,2.4-0.1l0.1,0.2c-0.2,0.7-0.3,1-0.5,1.6L428.8,369z"/>
		<path class="st0" d="M439,379.9l-0.2,0.1l-2.8,0.1l-0.1-0.1l0.8-3.4l1.2-5.3c1-4.4,1.2-5.4,1.9-8.8l0.2-0.2l2.8-0.1l0.1,0.2
			c-0.9,3.7-1.2,4.8-2.3,9.7l-0.6,2.8L439,379.9z"/>
		<path class="st0" d="M445.5,379.9l-0.2,0.2l-2.6,0.1l-0.1-0.2l0.9-3.7l0.5-2.4c0.8-3.2,0.9-3.9,1.3-6.5l0.2-0.2
			c1.2-0.1,1.5-0.2,2.7-0.4l0.1,0.2l-0.6,2.2c0.2-0.4,0.4-0.7,0.7-1c0.8-1,1.8-1.5,2.6-1.5c0.4,0,0.7,0.1,1.2,0.3l0.1,0.2l-1,2.5
			l-0.3,0.1c-0.3-0.2-0.6-0.4-1.1-0.4c-0.7,0-1.3,0.4-1.7,0.9c-0.8,0.9-1.2,2.3-1.8,4.8l-0.5,2.5L445.5,379.9z"/>
		<path class="st0" d="M462.2,379.2l-0.1,0.2c-1.3,0.7-2.6,1-4.1,1c-0.6,0-1.1-0.1-1.7-0.2c-3-0.6-4.2-2.8-4.2-5.4
			c0-3.6,2.1-8.1,7.1-8.1c1.3,0,2.6,0.2,3.6,1.1c1,0.9,1.4,2.1,1.4,3.6c0,0.9-0.1,1.5-0.3,2.3l-0.2,0.1c-0.8,0-4.9,0-5.9,0
			c-1.2,0-1.8,0-3.1,0.1c-0.1,0.4-0.1,0.8-0.1,1.1c0,2.3,1.4,3.3,3.8,3.3c2,0,3.1-0.8,4.1-1.5l0.2,0.1L462.2,379.2z M461.8,372
			c0-0.4,0.1-0.8,0.1-1.2c0-1.2-0.7-2.4-2.7-2.4c-1.2,0-2.2,0.5-3,1.5c-0.6,0.8-0.9,1.5-1.1,2.1H461.8z"/>
		<path class="st0" d="M469.8,371.4c-1,4.4-1.1,5.1-1.7,8.5l-0.2,0.2l-2.6,0.1l-0.1-0.2l1.1-5.2l1.3-5.9c0.6-2.7,1.2-5.8,1.5-8.3
			l0.2-0.2l2.8-0.5l0.1,0.2l-1.5,6.6L469.8,371.4z"/>
		<path class="st0" d="M484.2,372.1c-0.9,3.9-1.1,4.8-1.5,7.8l-0.2,0.2l-2.4,0.1l-0.1-0.2l0.2-1c-0.4,0.4-1.5,1.3-3.7,1.3
			c-2.6,0-4.7-1.8-4.7-5c0-2,1-4.2,2-5.4c2.3-2.7,5.6-2.9,7.9-2.9l3.5,0l0.1,0.2L484.2,372.1z M482.4,368.9c-0.4,0-0.7,0-1.1,0
			c-0.8,0-2.5,0.1-3.9,1.1c-2.6,1.8-2.7,5.1-2.7,5.2c0,1.2,0.7,3.1,3,3.1c0.7,0,1.5-0.2,2.2-0.6c0.3-0.2,0.6-0.4,0.8-0.6
			L482.4,368.9z"/>
		<path class="st0" d="M497.3,379.9l-0.2,0.2l-2.6,0.1l-0.1-0.2l1.1-4.5l0.6-2.8c0.1-0.6,0.3-1.2,0.3-1.8c0-1.5-0.9-2-2.1-2
			c-1.6,0-2.6,0.8-3.3,1.3c-0.9,4.2-1.2,5.5-2,9.8l-0.2,0.2l-2.6,0.1l-0.1-0.2l1-4.3l0.4-1.9c0.7-3,0.8-3.6,1.2-6.4l0.2-0.2
			c1.2-0.1,1.5-0.2,2.7-0.4l0.1,0.2l-0.3,1.3c1-0.6,2.2-1.5,4.3-1.5c0.8,0,3.5,0.2,3.5,3.3c0,1.3-0.5,3.5-0.8,4.9l-0.4,1.7
			L497.3,379.9z"/>
		<path class="st0" d="M514,370.5c-0.4,2-0.9,4.1-1.3,6.2c-0.3,1.5-0.4,2-0.6,3.2l-0.2,0.2l-2.3,0.1l-0.1-0.2l0.2-1
			c-0.6,0.5-1.8,1.3-3.7,1.3c-2.8,0-4.7-2.1-4.7-5.1c0-1.5,0.6-4.4,2.8-6.3c1.7-1.5,4.1-2,6.4-2c0.6,0,1.1,0,1.8,0.1l0.6-2.8
			c0.3-1.6,0.4-2.1,0.6-3.4l0.2-0.2l2.7-0.4l0.1,0.2l-1.2,4.8L514,370.5z M511.8,368.8c-0.4,0-0.9,0-1.4,0c-5.6,0-6.4,4.8-6.4,6.1
			c0,2,1.2,3.3,3.1,3.3c1.4,0,2.2-0.7,2.9-1.2L511.8,368.8z"/>
		<path class="st0" d="M544.6,375.2c-0.4,0.6-0.9,1.6-1.2,2.2c-0.1,0.2-1.3,2.4-1.3,2.4l-0.2,0.2l-2.9,0.1l-0.2-0.2l-0.5-4.9l-0.3-3
			l-0.6-4.8l0.2-0.2c1.1,0,1.3,0,2.6-0.1l0.2,0.1l0.3,3.9l0.3,3.1l0.4,3.9l3.4-6.7c1.1-2,1.4-2.6,2.1-4.1l0.2-0.1l2.3,0l0.1,0.2
			c-0.3,0.6-2.1,3.6-2.5,4.3L544.6,375.2z"/>
		<path class="st0" d="M558.8,379.2l-0.1,0.2c-1.3,0.7-2.6,1-4.1,1c-0.6,0-1.1-0.1-1.7-0.2c-3-0.6-4.2-2.8-4.2-5.4
			c0-3.6,2.1-8.1,7.1-8.1c1.3,0,2.6,0.2,3.6,1.1c1,0.9,1.4,2.1,1.4,3.6c0,0.9-0.1,1.5-0.3,2.3l-0.2,0.1c-0.8,0-4.9,0-5.9,0
			c-1.2,0-1.8,0-3.1,0.1c-0.1,0.4-0.1,0.8-0.1,1.1c0,2.3,1.4,3.3,3.8,3.3c2,0,3.1-0.8,4.1-1.5l0.2,0.1L558.8,379.2z M558.3,372
			c0-0.4,0.1-0.8,0.1-1.2c0-1.2-0.7-2.4-2.6-2.4c-1.2,0-2.2,0.5-3,1.5c-0.6,0.8-0.9,1.5-1.1,2.1H558.3z"/>
		<path class="st0" d="M564.6,379.9l-0.2,0.2l-2.6,0.1l-0.1-0.2l0.9-3.7l0.5-2.4c0.8-3.2,0.9-3.9,1.3-6.5l0.2-0.2
			c1.2-0.1,1.5-0.2,2.7-0.4l0.1,0.2l-0.6,2.2c0.2-0.4,0.4-0.7,0.7-1c0.8-1,1.8-1.5,2.6-1.5c0.4,0,0.7,0.1,1.2,0.3l0.1,0.2l-1,2.5
			l-0.3,0.1c-0.3-0.2-0.6-0.4-1-0.4c-0.7,0-1.3,0.4-1.7,0.9c-0.8,0.9-1.2,2.3-1.8,4.8l-0.5,2.5L564.6,379.9z"/>
		<path class="st0" d="M580.6,369.7l-0.2,0.1c-0.6-0.7-1.9-1.3-3.2-1.3c-1.5,0-2.7,0.8-2.7,1.9c0,1.1,1.1,1.6,2,2l1.3,0.6
			c0.7,0.3,2.2,1.3,2.2,3.1c0,2.1-1.6,4.4-5.4,4.4c-2.5,0-3.8-0.8-4.6-1.2l-0.1-0.2l0.6-1.8l0.2-0.1c0.8,0.7,1.8,1.5,3.7,1.5
			c1.9,0,2.9-1,2.9-2.1c0-1-0.8-1.5-2.1-2l-0.6-0.3c-1.2-0.6-2.8-1.4-2.8-3.4c0-1.1,0.6-4.1,5.2-4.1c2.3,0,3.5,0.7,4,1l0.1,0.2
			L580.6,369.7z"/>
		<path class="st0" d="M592.3,379.2l-0.1,0.2c-1.3,0.7-2.6,1-4.1,1c-0.6,0-1.1-0.1-1.7-0.2c-3-0.6-4.2-2.8-4.2-5.4
			c0-3.6,2.1-8.1,7.1-8.1c1.3,0,2.6,0.2,3.6,1.1c1,0.9,1.4,2.1,1.4,3.6c0,0.9-0.1,1.5-0.3,2.3l-0.2,0.1c-0.8,0-4.9,0-5.9,0
			c-1.2,0-1.8,0-3.1,0.1c0,0.4-0.1,0.8-0.1,1.1c0,2.3,1.4,3.3,3.8,3.3c2,0,3.1-0.8,4.1-1.5l0.2,0.1L592.3,379.2z M591.9,372
			c0.1-0.4,0.1-0.8,0.1-1.2c0-1.2-0.7-2.4-2.7-2.4c-1.2,0-2.2,0.5-3,1.5c-0.6,0.8-0.8,1.5-1.1,2.1H591.9z"/>
		<path class="st0" d="M608,372.1c-0.9,3.9-1.1,4.8-1.6,7.8l-0.2,0.2l-2.4,0.1l-0.1-0.2l0.2-1c-0.4,0.4-1.5,1.3-3.7,1.3
			c-2.6,0-4.7-1.8-4.7-5c0-2,1-4.2,2-5.4c2.3-2.7,5.6-2.9,7.9-2.9l3.5,0l0.1,0.2L608,372.1z M606.2,368.9c-0.4,0-0.8,0-1.1,0
			c-0.8,0-2.5,0.1-4,1.1c-2.6,1.8-2.7,5.1-2.7,5.2c0,1.2,0.6,3.1,2.9,3.1c0.7,0,1.5-0.2,2.2-0.6c0.3-0.2,0.5-0.4,0.8-0.6
			L606.2,368.9z"/>
		<path class="st0" d="M619.8,369.7l-0.2,0.1c-0.6-0.7-1.9-1.3-3.2-1.3c-1.5,0-2.7,0.8-2.7,1.9c0,1.1,1.1,1.6,2,2l1.3,0.6
			c0.7,0.3,2.2,1.3,2.2,3.1c0,2.1-1.6,4.4-5.4,4.4c-2.5,0-3.8-0.8-4.6-1.2l-0.1-0.2l0.6-1.8l0.2-0.1c0.8,0.7,1.8,1.5,3.7,1.5
			c1.9,0,2.9-1,2.9-2.1c0-1-0.8-1.5-2.1-2l-0.6-0.3c-1.2-0.6-2.8-1.4-2.8-3.4c0-1.1,0.6-4.1,5.2-4.1c2.3,0,3.5,0.7,4,1l0.1,0.2
			L619.8,369.7z"/>
		<g>
			<path class="st0" d="M528.2,380.6c-3.4,0-5.3-1.8-5.3-5.3c0-3.2,1.7-8.8,7.3-8.8c3.4,0,5.4,1.9,5.4,5.2c0,0.9-0.2,1.8-0.4,2.7
				C534.6,376.8,533,380.6,528.2,380.6z M532.8,371.5c0-2.6-1.7-3.1-2.6-3.1c-4.1,0-4.6,6.3-4.6,7.3c0,2.1,1.2,3,2.6,3
				c2.8,0,3.8-2.9,4.3-5C532.7,373,532.8,372.2,532.8,371.5z"/>
		</g>
	</g>
</g>
</svg>
